<svg id="Layer_1" data-name="Layer 1" xmlns="http://www.w3.org/2000/svg" viewBox="0 0 311.37 299.05"><defs><style>.cls-1,.cls-4{fill:#0073aa;}.cls-1,.cls-11,.cls-12,.cls-2,.cls-4,.cls-7{stroke:#0073aa;}.cls-1,.cls-10,.cls-11,.cls-12,.cls-2,.cls-4,.cls-5,.cls-6,.cls-7,.cls-8,.cls-9{stroke-width:4px;}.cls-1,.cls-3{opacity:0.3;}.cls-12,.cls-2,.cls-5{fill:#fff;}.cls-10,.cls-5,.cls-6,.cls-8,.cls-9{stroke:#00a0d2;}.cls-10,.cls-11,.cls-6,.cls-7,.cls-8,.cls-9{fill:none;}.cls-10,.cls-11,.cls-12,.cls-8{stroke-linecap:round;}.cls-10,.cls-11,.cls-9{stroke-miterlimit:10;}</style></defs><title>welcome</title><rect class="cls-1" x="74.36" y="75.89" width="155.25" height="194.75" rx="4" ry="4"/><rect class="cls-2" x="74.36" y="69.89" width="155.25" height="194.75" rx="4" ry="4"/><rect class="cls-1" x="84.61" y="93.8" width="134.75" height="163.98"/><rect class="cls-2" x="84.61" y="87.8" width="134.75" height="163.98"/><g class="cls-3"><path class="cls-4" d="M762.77,578.3h73.9a2,2,0,0,1,2,2v39.79a2,2,0,0,1-2,2H823a2,2,0,0,0-2,2v7.81a2,2,0,0,1-3.57,1.25l-8.19-10.3a2,2,0,0,0-1.57-.76H762.77a2,2,0,0,1-2-2V580.3A2,2,0,0,1,762.77,578.3Z" transform="translate(-597.64 -336.86)"/></g><path class="cls-1" d="M751.76,435.12h46.09V424.66a5,5,0,0,0-5-5h-27.6a15.63,15.63,0,0,0-31.25,0H706.4a5,5,0,0,0-5,5v10.46h50.36Z" transform="translate(-597.64 -336.86)"/><path class="cls-5" d="M751.76,430.12h46.09V419.66a5,5,0,0,0-5-5h-27.6a15.63,15.63,0,0,0-31.25,0H706.4a5,5,0,0,0-5,5v10.46h50.36Z" transform="translate(-597.64 -336.86)"/><circle class="cls-6" cx="749.63" cy="413.88" r="4.68" transform="translate(-376.62 750.67) rotate(-80.78)"/><rect class="cls-7" x="100.71" y="115.99" width="13.3" height="13.3" rx="6.65" ry="6.65"/><rect class="cls-7" x="100.71" y="145.99" width="13.3" height="13.3" rx="6.65" ry="6.65"/><rect class="cls-7" x="100.71" y="175.99" width="13.3" height="13.3" rx="6.65" ry="6.65"/><rect class="cls-7" x="100.71" y="205.99" width="13.3" height="13.3" rx="6.65" ry="6.65"/><line class="cls-8" x1="124.11" y1="118.64" x2="200.21" y2="118.64"/><line class="cls-8" x1="124.11" y1="128.64" x2="200.21" y2="128.64"/><line class="cls-8" x1="124.11" y1="148.64" x2="200.21" y2="148.64"/><line class="cls-8" x1="124.11" y1="158.64" x2="200.21" y2="158.64"/><line class="cls-8" x1="124.11" y1="178.64" x2="200.21" y2="178.64"/><line class="cls-8" x1="124.11" y1="188.64" x2="200.21" y2="188.64"/><line class="cls-8" x1="124.11" y1="208.64" x2="200.21" y2="208.64"/><line class="cls-8" x1="124.11" y1="218.64" x2="200.21" y2="218.64"/><path class="cls-9" d="M743.11,352.57l-4.47.33a1,1,0,0,0-.81.55l-7.5,15.75a1,1,0,0,0,.47,1.31L754.92,382a1,1,0,0,0,1.31-.46l7.5-15.75a1,1,0,0,0-.08-1l-2.54-3.66" transform="translate(-597.64 -336.86)"/><path class="cls-9" d="M737.34,354.48l9.08,13.15a1,1,0,0,0,.9.43l15.93-1.25" transform="translate(-597.64 -336.86)"/><path class="cls-9" d="M740.22,358.65l5.57-11.7a1,1,0,0,1,1.31-.46l16.21,7.72a1,1,0,0,1,.48,1.31l-5.58,11.7" transform="translate(-597.64 -336.86)"/><line class="cls-10" x1="150.66" y1="16.75" x2="159.46" y2="20.94"/><line class="cls-10" x1="148.56" y1="21.17" x2="157.35" y2="25.36"/><path class="cls-10" d="M889,422.34l7,7a1,1,0,0,1,0,1.41l-18.66,18.66a1,1,0,0,1-1.41,0l-18.86-18.86a1,1,0,0,1,0-1.42l6.39-6.39" transform="translate(-597.64 -336.86)"/><path class="cls-10" d="M879.26,440l-6.83-6.82s-8.19-11.36,4-23.15c0,0,9.34,5.47,4,10.48a1,1,0,0,0,.4,1.68l2.11.62a1,1,0,0,1,.72,1.1,24.05,24.05,0,0,1-7.13,13.37" transform="translate(-597.64 -336.86)"/><rect class="cls-11" x="67.25" y="22.86" width="28.69" height="28.69" rx="2" ry="2"/><path class="cls-11" d="M673.53,374.82l2.74,2.73a1,1,0,0,0,1.4,0l7.25-7.26" transform="translate(-597.64 -336.86)"/><circle class="cls-10" cx="295.03" cy="173.18" r="14.35"/><circle class="cls-10" cx="295.03" cy="173.18" r="5.45"/><rect class="cls-10" x="604.79" y="445.57" width="28.65" height="28.65" rx="2" ry="2" transform="translate(-431.14 -501.42) rotate(17.46)"/><path class="cls-10" d="M626.33,458.85l-7.69,4a.64.64,0,0,1-.86-.27l-4-7.66" transform="translate(-597.64 -336.86)"/><path class="cls-9" d="M639.06,563.1l1.59-1.61a1,1,0,0,0-.12-1.46L636,555.47a1,1,0,0,1-.11-1.46l2.23-2.28a1,1,0,0,0-.35-1.58l-15.24-5.09a1,1,0,0,0-1.2,1.21l5,15.49a.92.92,0,0,0,1.55.36l2.24-2.27a.93.93,0,0,1,1.43.12L636,564.6a.94.94,0,0,0,1.44.12Z" transform="translate(-597.64 -336.86)"/><path class="cls-10" d="M643.64,554.83V537.34a1,1,0,0,0-1-1H616a1,1,0,0,0-1,1v20a1,1,0,0,0,1,1h3.41" transform="translate(-597.64 -336.86)"/><path class="cls-11" d="M646,490.21l.75-.74a5.2,5.2,0,1,1,7.36,7.35l-.75.75" transform="translate(-597.64 -336.86)"/><path class="cls-11" d="M636,514.48l-6.88-6.87a.36.36,0,0,1,0-.49L646,490.21l7.36,7.36-16.91,16.91A.34.34,0,0,1,636,514.48Z" transform="translate(-597.64 -336.86)"/><path class="cls-11" d="M629.1,507.61l-2.1,8.57a.33.33,0,0,0,.4.4l8.58-2.1" transform="translate(-597.64 -336.86)"/><line class="cls-11" x1="52.05" y1="157.03" x2="34.9" y2="174.18"/><rect class="cls-11" x="844.09" y="461.52" width="28.65" height="28.65" rx="2" ry="2" transform="translate(-423.51 -564.61) rotate(16.8)"/><line class="cls-11" x1="254.54" y1="133.34" x2="269.1" y2="137.74"/><line class="cls-11" x1="252.4" y1="140.44" x2="266.96" y2="144.83"/><line class="cls-11" x1="259.33" y1="130.6" x2="254.93" y2="145.17"/><line class="cls-11" x1="266.89" y1="132.89" x2="262.5" y2="147.45"/><rect class="cls-11" x="790.34" y="344.21" width="28.65" height="24.28" rx="2" ry="2" transform="translate(-672.53 48.71) rotate(-25.79)"/><rect class="cls-11" x="792.43" y="353.37" width="28.65" height="14.64" rx="2" ry="2" transform="translate(-674.21 50.06) rotate(-25.79)"/><line class="cls-11" x1="193.7" y1="7.59" x2="197.22" y2="14.87"/><line class="cls-11" x1="205.27" y1="2" x2="208.79" y2="9.29"/><path class="cls-11" d="M852.63,368.65l3.62,7.69a1.1,1.1,0,0,0,.79.6l8.1,1.23a1.11,1.11,0,0,1,.58,1.87l-5.86,6a1.12,1.12,0,0,0-.3,1l1.38,8.45a1.05,1.05,0,0,1-1.51,1.16l-7.25-4a1,1,0,0,0-1,0l-7.25,4a1.05,1.05,0,0,1-1.51-1.16l1.38-8.45a1.15,1.15,0,0,0-.3-1l-5.86-6a1.11,1.11,0,0,1,.57-1.87l8.11-1.23a1.06,1.06,0,0,0,.78-.6l3.63-7.69A1,1,0,0,1,852.63,368.65Z" transform="translate(-597.64 -336.86)"/><path class="cls-11" d="M866.66,530.23c3.94,3.93,3.43,18.26,2.9,22a1.4,1.4,0,0,1-1.15,1.15c-3.77.53-18.09,1-22-2.9-4.61-4.6-3.1-12.18,2.5-17.78S862.06,525.62,866.66,530.23Z" transform="translate(-597.64 -336.86)"/><circle class="cls-11" cx="259.42" cy="204.05" r="4.16"/><line class="cls-11" x1="13.17" y1="75.21" x2="16.99" y2="71.39"/><line class="cls-11" x1="9.74" y1="71.77" x2="13.55" y2="67.95"/><line class="cls-11" x1="16.61" y1="78.64" x2="20.42" y2="74.83"/><line class="cls-11" x1="23.3" y1="65.08" x2="27.12" y2="61.26"/><line class="cls-11" x1="19.86" y1="61.64" x2="23.68" y2="57.83"/><line class="cls-11" x1="26.74" y1="68.51" x2="30.55" y2="64.7"/><path class="cls-11" d="M599.93,406.1l5.24-5.24a5.89,5.89,0,0,1,8.32-.06l12,12h0l-9.44,9.43a1,1,0,0,1-1.38,0l-14.78-14.78A1,1,0,0,1,599.93,406.1Z" transform="translate(-597.64 -336.86)"/><path class="cls-11" d="M635,403.4l-9.43,9.43h0l-12-12a5.89,5.89,0,0,1,.06-8.32l5.24-5.24a1,1,0,0,1,1.39,0L635,402A1,1,0,0,1,635,403.4Z" transform="translate(-597.64 -336.86)"/><path class="cls-11" d="M631.73,414.69l-3.21,1.15-1.14,3.2a1,1,0,0,1-1.67.3L622.36,416l6.31-6.31L632,413A1,1,0,0,1,631.73,414.69Z" transform="translate(-597.64 -336.86)"/><path class="cls-2" d="M762.77,572.3h73.9a2,2,0,0,1,2,2v39.79a2,2,0,0,1-2,2H823a2,2,0,0,0-2,2v7.81a2,2,0,0,1-3.57,1.25l-8.19-10.3a2,2,0,0,0-1.57-.76H762.77a2,2,0,0,1-2-2V574.3A2,2,0,0,1,762.77,572.3Z" transform="translate(-597.64 -336.86)"/><line class="cls-12" x1="229.95" y1="251.53" x2="177.68" y2="251.53"/><line class="cls-12" x1="229.95" y1="262.83" x2="177.68" y2="262.83"/></svg>